:SAMPLES-PER-SECOND 30
:FULLY-SPECIFIED
:DEGREES
418
root  10.1358 31.5044 19.3995 -16.6444 -57.8472 23.8908
RightUpLeg  9.3364 -3.28069 10.5973
RightLeg  27.6846 -8.29278 -3.67871
RightFoot  -4.23395 0.00449293 0.499176
RightToes  -0.743386 -0.00189543 -0.0070217
Spine  5.32029 1.51934 -5.20895
Spine1  9.90863 3.40741 -8.99604
HEad  26.542 -37.5394 28.9275
LeftShoulder1  0 -2.42657e-020 -4.95415e-022
LeftArm  -4.49912 -6.44797 -82.2071
LeftForeArm  -84.2445 -80.2693 -90.6617
LeftHand  10.1722 -33.2772 -33.5452
RightShoulder  0 2.42657e-020 1.07489e-018
RightArm  -51.0345 -9.34933 86.3578
RightForeArm  57.246 13.2166 2.33248
RightHand  -1.01996 23.6649 -4.49686
LeftUpLeg  -36.6064 -13.8342 -0.110784
LeftLeg  17.0979 -7.32763 -1.74456
LeftFoot  -8.42811 0.07939 1.07743
LeftToes  -24.7909 1.18758e-006 1.19596e-007
419
root  7.32149 30.4596 20.354 -22.8158 -60.4017 29.1198
RightUpLeg  11.2048 -2.23978 9.13567
RightLeg  36.5235 -5.97869 -3.8613
RightFoot  -2.24381 -0.00630411 0.0556562
RightToes  -12.3998 -0.0432621 -0.113088
Spine  5.76149 1.54459 -5.73369
Spine1  10.4568 3.79789 -10.0511
HEad  25.6916 -37.7711 29.4143
LeftShoulder1  0 -2.42657e-020 -4.95415e-022
LeftArm  3.20972 -13.514 -87.7649
LeftForeArm  -134.531 -72.369 -32.4419
LeftHand  10.1927 -30.6673 -36.4109
RightShoulder  0 2.42657e-020 1.07489e-018
RightArm  -49.0555 -5.5715 88.3116
RightForeArm  57.6438 11.5127 2.01776
RightHand  -1.06774 23.5961 -4.73984
LeftUpLeg  -39.1563 -16.7253 -0.64451
LeftLeg  24.6433 -9.22151 -3.516
LeftFoot  -9.68727 0.136563 1.61145
LeftToes  -30.7575 1.18758e-006 1.19596e-007
420
root  4.53342 29.1828 21.4209 -32.8615 -62.663 37.7683
RightUpLeg  10.4912 -3.07223 4.41147
RightLeg  50.7208 -2.26325 -2.47605
RightFoot  2.28688 0.0137423 -0.310858
RightToes  -26.4526 -0.120272 -0.226571
Spine  6.47929 1.43432 -6.40945
Spine1  11.5104 3.98734 -11.4977
HEad  24.2682 -37.3466 29.3349
LeftShoulder1  0 -2.42657e-020 -4.95415e-022
LeftArm  8.77602 -20.0139 -96.3395
LeftForeArm  -148.249 -51.2072 -12.0706
LeftHand  9.8445 -27.3481 -39.3644
RightShoulder  0 2.42657e-020 1.07489e-018
RightArm  -50.1391 -0.947427 89.8509
RightForeArm  60.8676 8.9919 1.5536
RightHand  -0.994048 23.649 -4.37664
LeftUpLeg  -39.4366 -21.4163 -1.59805
LeftLeg  35.0985 -12.3233 -7.43168
LeftFoot  -0.982314 0.00127016 0.148156
LeftToes  -40.8031 1.18758e-006 1.19596e-007
421
root  1.79265 27.8379 22.3362 -44.764 -64.7372 48.9183
RightUpLeg  5.87198 -3.33545 -0.68133
RightLeg  67.6267 -0.86838 -1.91889
RightFoot  3.14277 0.0234977 -0.478887
RightToes  -37.2415 -0.19683 -0.299015
Spine  7.53886 -0.433213 -7.1244
Spine1  13.5798 -0.21545 -11.0974
HEad  24.8198 -36.9086 29.9516
LeftShoulder1  0 -2.42657e-020 -4.95415e-022
LeftArm  9.9078 -26.0952 -103.957
LeftForeArm  -139.238 -27.5691 -4.8515
LeftHand  9.30133 -25.2714 -40.2679
RightShoulder  0 2.42657e-020 1.07489e-018
RightArm  -51.8858 4.38831 92.0778
RightForeArm  62.4701 7.22007 1.2328
RightHand  -0.98173 22.8238 -4.49203
LeftUpLeg  -42.349 -24.0349 -3.8888
LeftLeg  51.5677 -6.48977 -7.13424
LeftFoot  -4.05959 0.0144851 0.408695
LeftToes  -45.1802 1.18758e-006 1.19596e-007
422
root  -0.897194 26.9957 22.791 -58.8551 -66.528 62.2648
RightUpLeg  -1.63081 -2.15497 -3.91398
RightLeg  82.6905 -0.370742 -2.40554
RightFoot  -4.01342 -0.0264627 -0.377763
RightToes  -29.7671 -0.142321 -0.250344
Spine  8.65746 -2.23014 -7.94719
Spine1  15.9365 -4.03806 -11.1684
HEad  26.4992 -36.7318 31.6204
LeftShoulder1  0 -2.42657e-020 -4.95415e-022
LeftArm  7.09489 -31.6187 -107.181
LeftForeArm  -123.054 -13.045 -1.98208
LeftHand  8.20914 -26.0162 -34.891
RightShoulder  0 2.42657e-020 1.07489e-018
RightArm  -53.9004 7.99144 95.6582
RightForeArm  55.3798 6.41376 1.10447
RightHand  -1.10087 21.0516 -5.55141
LeftUpLeg  -39.2668 -21.5049 -7.27485
LeftLeg  59.7996 -3.5014 -5.207
LeftFoot  -13.2577 0.127431 1.09648
LeftToes  -45.6978 1.18758e-006 1.19596e-007
423
root  -3.43615 26.779 22.7612 -76.0955 -69.1701 79.561
RightUpLeg  -11.9273 -1.26675 -4.98636
RightLeg  92.7548 0.0624559 -3.41551
RightFoot  -9.7359 -0.0301407 0.0236495
RightToes  -26.294 -0.119251 -0.225401
Spine  8.80877 -3.11598 -7.97551
Spine1  16.0978 -5.58193 -12.0732
HEad  27.9351 -33.1534 31.6495
LeftShoulder1  0 -2.42657e-020 -4.95415e-022
LeftArm  5.0745 -34.4073 -105.278
LeftForeArm  -107.534 -5.80461 -0.719044
LeftHand  5.71659 -25.333 -25.4264
RightShoulder  0 2.42657e-020 1.07489e-018
RightArm  -53.9954 10.6003 98.1529
RightForeArm  52.4766 4.59025 0.787307
RightHand  -0.969391 18.8959 -5.45231
LeftUpLeg  -33.9461 -17.3371 -8.17047
LeftLeg  62.1276 -1.81067 -2.95678
LeftFoot  -19.8447 0.160313 0.916416
LeftToes  -44.8745 1.18758e-006 1.19596e-007
424
root  -5.91291 27.1617 22.365 -96.3721 -71.0203 99.8996
RightUpLeg  -22.054 -2.24527 -4.2657
RightLeg  96.0426 0.344449 -5.29862
RightFoot  -14.5376 0.0561532 0.817832
RightToes  -21.8909 -0.0922485 -0.191849
Spine  8.54085 -3.68716 -6.74896
Spine1  15.1367 -6.71016 -11.2473
HEad  30.1431 -28.6814 28.6383
LeftShoulder1  0 -2.42657e-020 -4.95415e-022
LeftArm  -3.02779 -33.8615 -102.83
LeftForeArm  -91.9897 -0.151261 0.22721
LeftHand  6.96207 -27.8464 -27.9496
RightShoulder  0 2.42657e-020 1.07489e-018
RightArm  -52.4315 10.7007 98.0502
RightForeArm  47.3515 4.78476 0.830236
RightHand  -0.725052 18.9733 -3.96825
LeftUpLeg  -26.0087 -13.2323 -7.41558
LeftLeg  58.9498 -0.879685 -1.27879
LeftFoot  -23.4081 0.0883351 0.426391
LeftToes  -44.3898 1.18758e-006 1.19596e-007
425
root  -8.52455 28.0467 21.7165 -118.228 -71.8268 121.725
RightUpLeg  -29.8906 -5.24289 -1.97063
RightLeg  92.8376 0.0162008 -6.85482
RightFoot  -16.2658 0.134208 1.31672
RightToes  -19.4819 -0.0785894 -0.172644
Spine  8.59396 -4.11369 -4.51911
Spine1  14.8717 -8.17268 -7.69461
HEad  32.3572 -25.0044 25.149
LeftShoulder1  0 -2.42657e-020 -4.95415e-022
LeftArm  0.60818 -30.402 -100.512
LeftForeArm  -99.06 -0.144859 0.249717
LeftHand  9.29693 -27.6716 -36.9185
RightShoulder  0 2.42657e-020 1.07489e-018
RightArm  -57.2302 10.739 94.5676
RightForeArm  47.1773 4.95863 0.8612
RightHand  -0.40438 20.1275 -1.90883
LeftUpLeg  -16.0967 -11.4315 -5.91724
LeftLeg  52.1993 1.15469 1.29762
LeftFoot  -22.9047 -0.170746 -0.842824
LeftToes  -44.4116 1.18758e-006 1.19596e-007
426
root  -11.1651 29.222 20.9312 -136.785 -69.7784 140.696
RightUpLeg  -36.098 -8.33745 0.179217
RightLeg  85.5027 -0.830302 -6.45736
RightFoot  -17.2594 0.13493 1.26665
RightToes  -19.7678 -0.0801679 -0.174952
Spine  8.50444 -4.18877 -2.27908
Spine1  14.355 -9.04166 -3.89199
HEad  34.2648 -22.1068 20.7846
LeftShoulder1  0 -2.42657e-020 -4.95415e-022
LeftArm  -5.5528 -27.3993 -99.8184
LeftForeArm  -104.464 -0.138125 0.26629
LeftHand  10.0501 -27.1488 -40.3987
RightShoulder  0 2.42657e-020 1.07489e-018
RightArm  -64.209 10.7952 89.386
RightForeArm  46.2743 5.6616 0.986858
RightHand  -0.202114 20.6493 -0.739631
LeftUpLeg  -7.65182 -7.38877 -4.88913
LeftLeg  45.7754 2.49515 2.2457
LeftFoot  -15.3789 -0.154652 -1.14539
LeftToes  -49.9805 1.18758e-006 1.19596e-007
